<svg width="187" height="17" viewBox="0 0 187 17" fill="none" xmlns="http://www.w3.org/2000/svg">
<g clip-path="url(#clip0_6437_16074)">
<path d="M49.1126 2.28209C48.7469 0.838754 43.9878 1.04355 41.184 1.29711C38.7898 1.51166 36.0397 1.90663 33.075 2.44788C32.2997 0.999667 31.4561 0.0293145 30.4565 5.7689e-05C29.3252 -0.0291992 28.272 1.11669 27.1554 3.60353C27.1407 3.62791 27.131 3.65716 27.1164 3.68154C25.9461 3.94973 24.7612 4.23742 23.5616 4.53974C21.6892 5.01273 19.8558 5.51497 18.0906 6.03184C16.9789 4.24718 15.9549 3.33534 14.926 3.1793C13.351 2.94037 12.1173 4.41297 10.6935 6.11961C10.5911 6.24152 10.4936 6.36342 10.3912 6.48533C9.32819 7.76775 8.98686 8.21636 7.79221 9.54754C7.42162 9.6987 7.05591 9.84986 6.70483 10.001C6.64144 10.0254 6.58292 10.0547 6.51953 10.079C3.93518 11.1957 -0.346073 13.2778 0.0245136 14.7211C0.253692 15.633 2.23341 15.8865 4.36915 15.8865C5.61745 15.8865 6.9145 15.7988 7.94824 15.7061C11.2348 15.4087 15.1893 14.7796 19.4511 13.8824C19.9045 14.37 20.4019 14.7114 20.9627 14.8284C22.05 15.1795 23.0301 14.6821 23.9615 13.3168C24.0785 13.1461 24.1907 12.9657 24.2979 12.7804C24.7222 12.678 25.1464 12.5707 25.5755 12.4635C28.3403 11.7613 31.0124 11.0055 33.5139 10.2253C34.6597 13.4875 35.7617 16.5107 37.5172 16.5789C37.5367 16.5789 37.561 16.5789 37.5806 16.5789C38.8825 16.5789 40.2185 14.9503 41.774 11.459L41.8082 11.381C42.208 10.474 43.3832 7.68973 43.8708 6.42194L43.9 6.34392C46.4015 5.1834 49.4247 3.50113 49.1126 2.27722M23.6835 4.8957C24.7661 4.61776 25.8388 4.35445 26.8969 4.11064C26.4971 4.93471 26.107 5.86606 25.6974 6.84616V6.86079C24.6149 9.42564 23.4007 12.3367 22.2012 12.5317C21.8599 12.5854 21.5039 12.4001 21.1187 11.9612C20.8895 11.6979 20.6945 11.3761 20.5287 10.9763C19.7387 9.08431 19.0025 7.56295 18.3052 6.38293C20.0362 5.86606 21.8355 5.36869 23.6787 4.8957M10.8544 7.70436C12.3026 6.05622 13.39 5.31018 14.1799 5.43208C14.7261 5.51497 15.1747 6.03184 15.6038 6.77789C13.6338 7.39716 11.7663 8.03106 10.0499 8.66984C10.2985 8.38702 10.6057 8.02131 10.8544 7.70924M5.53943 15.3599C3.90105 15.3599 2.71614 15.1892 2.12125 14.8333C1.89695 14.6967 1.76042 14.5407 1.71653 14.3603C1.50198 13.4923 3.37442 12.1075 6.88037 10.5081C7.16318 10.3765 7.45575 10.2497 7.75807 10.1181C8.11403 9.96201 8.48462 9.80598 8.86496 9.64994C10.9081 8.81124 13.2535 7.97255 15.7988 7.15823C16.0329 7.60684 16.2621 8.10908 16.501 8.64058C16.6814 9.04042 16.8716 9.4549 17.0715 9.87424C17.7444 11.2688 18.3978 12.6146 19.1536 13.5606C13.5899 14.7211 8.70892 15.3599 5.52968 15.3599M25.4341 12.1026C25.1318 12.1807 24.8343 12.2538 24.532 12.3318C25.0537 11.3517 25.5414 10.1912 26.0436 8.97216C26.8774 6.96806 27.7356 4.89083 28.7791 3.78882C28.823 3.74006 28.8718 3.70105 28.9156 3.66204C29.0814 3.52551 29.2716 3.44261 29.452 3.42798C29.5837 3.41336 29.7153 3.42798 29.847 3.46699C31.2416 3.86196 32.3582 6.99244 33.3578 9.83036C30.8759 10.6252 28.2037 11.3956 25.4341 12.1026ZM41.4815 9.6792L41.4717 9.6987C41.3059 10.0985 39.9455 12.8048 39.019 13.5216C38.6143 13.8385 38.3705 13.7703 38.2925 13.7459C37.4781 13.5118 36.7175 11.5955 35.9227 9.44514C38.3949 8.6162 40.6525 7.76775 42.5981 6.92905C42.6761 6.89492 42.7493 6.86079 42.8273 6.83153L41.4815 9.68407V9.6792ZM43.5733 5.8563C43.4514 5.91969 43.3246 5.97821 43.1979 6.0416C42.6322 6.31954 42.0178 6.60235 41.3498 6.89004C39.7066 7.60196 37.8244 8.32363 35.7715 9.03067C35.7569 8.99166 35.7422 8.94778 35.7276 8.90877C35.5228 8.35776 35.318 7.78725 35.0937 7.21187C34.4793 5.61737 33.8844 4.06188 33.2457 2.80384C37.4245 2.05291 41.0377 1.64819 43.5733 1.64819C45.2117 1.64819 46.3966 1.81886 46.9915 2.17482C47.2158 2.31135 47.3523 2.46738 47.3962 2.6478C47.5815 3.39385 46.2064 4.53487 43.5733 5.8563Z" fill="#BBFF00" style="fill:#BBFF00;fill:color(display-p3 0.7333 1.0000 0.0000);fill-opacity:1;"/>
<path d="M166.038 16.4377C164.575 16.4377 163.332 16.2378 162.308 15.833C161.279 15.4283 160.499 14.8285 159.962 14.0289C159.426 13.2292 159.158 12.2344 159.158 11.0495V10.913H162.415V11.3226C162.415 11.7956 162.513 12.1759 162.708 12.4636C162.903 12.7513 163.264 12.9659 163.78 13.1024C164.302 13.2389 165.053 13.3072 166.038 13.3072C166.906 13.3072 167.569 13.2584 168.032 13.1609C168.496 13.0634 168.813 12.9073 168.988 12.6928C169.164 12.4782 169.247 12.2052 169.247 11.8687C169.247 11.3957 169.1 11.0544 168.803 10.8399C168.505 10.6253 167.989 10.4546 167.252 10.3132L163.171 9.69884C162.303 9.54769 161.562 9.29413 160.947 8.94304C160.333 8.59196 159.86 8.12385 159.528 7.53872C159.197 6.95358 159.031 6.24166 159.031 5.40297C159.031 4.8227 159.148 4.2522 159.387 3.69144C159.626 3.13068 160.006 2.62357 160.528 2.17496C161.05 1.72636 161.733 1.36552 162.581 1.09246C163.425 0.819393 164.463 0.682861 165.697 0.682861C167.189 0.682861 168.413 0.907164 169.373 1.35577C170.334 1.80437 171.056 2.43827 171.534 3.25259C172.011 4.0669 172.25 5.008 172.25 6.071V6.20753H168.974V5.89058C168.974 5.40297 168.876 5.008 168.681 4.7008C168.486 4.39848 168.125 4.17418 167.608 4.02789C167.087 3.88161 166.34 3.80847 165.375 3.80847C164.595 3.80847 163.98 3.86211 163.542 3.96938C163.103 4.07666 162.786 4.23757 162.596 4.44724C162.405 4.66179 162.313 4.93486 162.313 5.27131C162.313 5.559 162.371 5.80281 162.488 5.99298C162.605 6.18315 162.786 6.32943 163.03 6.43671C163.273 6.54398 163.6 6.63663 164.005 6.70977L168.086 7.39731C169.173 7.5826 170.037 7.87517 170.68 8.28964C171.324 8.69924 171.792 9.20148 172.08 9.78662C172.367 10.3718 172.514 11.0154 172.514 11.7176C172.514 12.5416 172.294 13.3121 171.86 14.0337C171.426 14.7554 170.734 15.3405 169.778 15.7794C168.822 16.2231 167.579 16.4425 166.048 16.4425L166.038 16.4377Z" fill="#EEF2E4" style="fill:#EEF2E4;fill:color(display-p3 0.9333 0.9490 0.8941);fill-opacity:1;"/>
<path d="M65.0435 8.44568L61.6351 0.912041H57.2319V16.2085H60.4892V8.44568L60.3575 6.04662H60.5965L61.44 8.44568L64.4779 15.2967H68.4276L71.4654 8.44568L72.3138 6.04662H72.5528L72.4455 8.44568V16.2085H75.6979V0.912041H71.2703L67.9741 8.44568L66.6478 12.0296H66.4088L65.0435 8.44568Z" fill="#EEF2E4" style="fill:#EEF2E4;fill:color(display-p3 0.9333 0.9490 0.8941);fill-opacity:1;"/>
<path fill-rule="evenodd" clip-rule="evenodd" d="M83.2265 0.912041L76.868 16.2085H80.5154L81.8997 12.8293H89.1632L90.5407 16.2085H94.271L87.8686 0.912041H83.2265ZM87.9069 9.74761L86.5472 6.41233L85.6597 4.03765H85.4208L84.5285 6.41233L83.1621 9.74761H87.9069Z" fill="#EEF2E4" style="fill:#EEF2E4;fill:color(display-p3 0.9333 0.9490 0.8941);fill-opacity:1;"/>
<path fill-rule="evenodd" clip-rule="evenodd" d="M106.7 15.2967C105.564 15.9062 104.213 16.2085 102.653 16.2085H95.6412V0.912041H102.653C104.213 0.912041 105.564 1.21436 106.7 1.82388C107.836 2.4334 108.714 3.30623 109.338 4.44724C109.962 5.58826 110.27 6.95846 110.27 8.55783C110.27 10.1572 109.958 11.5274 109.338 12.6684C108.714 13.8094 107.836 14.6871 106.7 15.2967ZM105.052 12.7513C104.452 13 103.653 13.1268 102.653 13.1268H98.8984V3.99376H102.653C103.653 3.99376 104.452 4.11566 105.052 4.36922C105.652 4.62278 106.091 5.07626 106.374 5.72967C106.656 6.38795 106.798 7.34855 106.798 8.5627C106.798 9.77686 106.656 10.718 106.374 11.3811C106.096 12.0443 105.652 12.4978 105.052 12.7513Z" fill="#EEF2E4" style="fill:#EEF2E4;fill:color(display-p3 0.9333 0.9490 0.8941);fill-opacity:1;"/>
<path d="M110.635 0.912041L116.667 16.2085H121.314L127.346 0.912041H123.44L119.144 12.7367H118.925L114.565 0.912041H110.635Z" fill="#EEF2E4" style="fill:#EEF2E4;fill:color(display-p3 0.9333 0.9490 0.8941);fill-opacity:1;"/>
<path fill-rule="evenodd" clip-rule="evenodd" d="M154.643 1.44354C153.804 1.08758 152.785 0.907167 151.585 0.907167H143.554V16.2085H146.816V10.6594H148.967C149.532 10.6594 149.981 10.7082 150.322 10.8057C150.659 10.9081 150.937 11.069 151.156 11.2982C151.371 11.5274 151.58 11.8395 151.785 12.2344L153.779 16.2085H157.554L155.452 12.0979C155.174 11.5664 154.877 11.1178 154.56 10.7521C154.243 10.3864 153.755 10.1133 153.107 9.92803V9.74273C154.018 9.65496 154.774 9.42578 155.384 9.06983C155.988 8.70899 156.447 8.23601 156.749 7.64112C157.051 7.04623 157.202 6.33431 157.202 5.49562C157.202 4.52526 156.988 3.69632 156.554 3.00878C156.12 2.32125 155.481 1.7995 154.643 1.44354ZM153.258 7.65575C152.897 7.93856 152.331 8.07997 151.566 8.07997H146.811V3.98889H151.566C152.331 3.98889 152.897 4.13517 153.258 4.43262C153.618 4.73006 153.799 5.26156 153.799 6.02224C153.799 6.83168 153.618 7.37293 153.258 7.65575Z" fill="#EEF2E4" style="fill:#EEF2E4;fill:color(display-p3 0.9333 0.9490 0.8941);fill-opacity:1;"/>
<path d="M128.906 16.2085V0.912043H129.823V0.907167H141.214V3.99376H132.163V6.98284H140.887V10.0451H132.163V13.1268H141.214V16.2085H128.906Z" fill="#EEF2E4" style="fill:#EEF2E4;fill:color(display-p3 0.9333 0.9490 0.8941);fill-opacity:1;"/>
<path d="M174.693 16.2085H187.001V13.1268H177.95V10.0451H186.674V6.98284H177.95V3.99376H187.001V0.907167H175.61V0.912043H174.693V16.2085Z" fill="#EEF2E4" style="fill:#EEF2E4;fill:color(display-p3 0.9333 0.9490 0.8941);fill-opacity:1;"/>
</g>
<defs>
<clipPath id="clip0_6437_16074">
<rect width="187" height="16.5838" fill="white" style="fill:white;fill-opacity:1;"/>
</clipPath>
</defs>
</svg>
